<svg width="111" height="30" viewBox="0 0 111 30" fill="none" xmlns="http://www.w3.org/2000/svg">
<path d="M105.59 5.95C105.99 5.95 106.347 6.04 106.66 6.22C106.98 6.4 107.227 6.65 107.4 6.97C107.58 7.28333 107.67 7.64 107.67 8.04C107.67 8.44 107.58 8.8 107.4 9.12C107.227 9.43333 106.98 9.68 106.66 9.86C106.347 10.04 105.99 10.13 105.59 10.13C105.19 10.13 104.83 10.04 104.51 9.86C104.197 9.68 103.95 9.43333 103.77 9.12C103.59 8.8 103.5 8.44 103.5 8.04C103.5 7.64 103.59 7.28333 103.77 6.97C103.95 6.65 104.197 6.4 104.51 6.22C104.83 6.04 105.19 5.95 105.59 5.95ZM105.59 9.67C106.07 9.67 106.453 9.52 106.74 9.22C107.033 8.92 107.18 8.52667 107.18 8.04C107.18 7.55333 107.033 7.16 106.74 6.86C106.453 6.56 106.07 6.41 105.59 6.41C105.103 6.41 104.717 6.56 104.43 6.86C104.143 7.16 104 7.55333 104 8.04C104 8.52667 104.143 8.92 104.43 9.22C104.717 9.52 105.103 9.67 105.59 9.67ZM106.51 7.64C106.51 7.78667 106.473 7.91667 106.4 8.03C106.327 8.13667 106.227 8.21667 106.1 8.27L106.63 9.09H105.87L105.43 8.34H105.36V9.09H104.73V6.94H105.74C105.973 6.94 106.16 7.00667 106.3 7.14C106.44 7.26667 106.51 7.43333 106.51 7.64ZM105.36 7.83H105.7C105.753 7.83 105.797 7.81667 105.83 7.79C105.87 7.75667 105.89 7.71333 105.89 7.66C105.89 7.60667 105.87 7.56667 105.83 7.54C105.797 7.51333 105.753 7.5 105.7 7.5H105.36V7.83Z" fill="white"/>
<path d="M11.7056 22L7.94563 17.28V22H5.14563V7.2H7.94563V15.62L11.6656 10.92H15.3056L10.4256 16.48L15.3456 22H11.7056ZM20.7453 22.18C19.6786 22.18 18.7186 21.9467 17.8653 21.48C17.012 21 16.3386 20.3267 15.8453 19.46C15.3653 18.5933 15.1253 17.5933 15.1253 16.46C15.1253 15.3267 15.372 14.3267 15.8653 13.46C16.372 12.5933 17.0586 11.9267 17.9253 11.46C18.792 10.98 19.7586 10.74 20.8253 10.74C21.892 10.74 22.8586 10.98 23.7253 11.46C24.592 11.9267 25.272 12.5933 25.7653 13.46C26.272 14.3267 26.5253 15.3267 26.5253 16.46C26.5253 17.5933 26.2653 18.5933 25.7453 19.46C25.2386 20.3267 24.5453 21 23.6653 21.48C22.7986 21.9467 21.8253 22.18 20.7453 22.18ZM20.7453 19.74C21.252 19.74 21.7253 19.62 22.1653 19.38C22.6186 19.1267 22.9786 18.7533 23.2453 18.26C23.512 17.7667 23.6453 17.1667 23.6453 16.46C23.6453 15.4067 23.3653 14.6 22.8053 14.04C22.2586 13.4667 21.5853 13.18 20.7853 13.18C19.9853 13.18 19.312 13.4667 18.7653 14.04C18.232 14.6 17.9653 15.4067 17.9653 16.46C17.9653 17.5133 18.2253 18.3267 18.7453 18.9C19.2786 19.46 19.9453 19.74 20.7453 19.74ZM33.7192 10.76C35.0392 10.76 36.1059 11.18 36.9192 12.02C37.7326 12.8467 38.1392 14.0067 38.1392 15.5V22H35.3392V15.88C35.3392 15 35.1192 14.3267 34.6792 13.86C34.2392 13.38 33.6392 13.14 32.8792 13.14C32.1059 13.14 31.4926 13.38 31.0392 13.86C30.5992 14.3267 30.3792 15 30.3792 15.88V22H27.5792V10.92H30.3792V12.3C30.7526 11.82 31.2259 11.4467 31.7992 11.18C32.3859 10.9 33.0259 10.76 33.7192 10.76ZM44.0419 22.18C43.1352 22.18 42.3219 22.02 41.6019 21.7C40.8819 21.3667 40.3085 20.92 39.8819 20.36C39.4685 19.8 39.2419 19.18 39.2019 18.5H42.0219C42.0752 18.9267 42.2819 19.28 42.6419 19.56C43.0152 19.84 43.4752 19.98 44.0219 19.98C44.5552 19.98 44.9685 19.8733 45.2619 19.66C45.5685 19.4467 45.7219 19.1733 45.7219 18.84C45.7219 18.48 45.5352 18.2133 45.1619 18.04C44.8019 17.8533 44.2219 17.6533 43.4219 17.44C42.5952 17.24 41.9152 17.0333 41.3819 16.82C40.8619 16.6067 40.4085 16.28 40.0219 15.84C39.6485 15.4 39.4619 14.8067 39.4619 14.06C39.4619 13.4467 39.6352 12.8867 39.9819 12.38C40.3419 11.8733 40.8485 11.4733 41.5019 11.18C42.1685 10.8867 42.9485 10.74 43.8419 10.74C45.1619 10.74 46.2152 11.0733 47.0019 11.74C47.7885 12.3933 48.2219 13.28 48.3019 14.4H45.6219C45.5819 13.96 45.3952 13.6133 45.0619 13.36C44.7419 13.0933 44.3085 12.96 43.7619 12.96C43.2552 12.96 42.8619 13.0533 42.5819 13.24C42.3152 13.4267 42.1819 13.6867 42.1819 14.02C42.1819 14.3933 42.3685 14.68 42.7419 14.88C43.1152 15.0667 43.6952 15.26 44.4819 15.46C45.2819 15.66 45.9419 15.8667 46.4619 16.08C46.9819 16.2933 47.4285 16.6267 47.8019 17.08C48.1885 17.52 48.3885 18.1067 48.4019 18.84C48.4019 19.48 48.2219 20.0533 47.8619 20.56C47.5152 21.0667 47.0085 21.4667 46.3419 21.76C45.6885 22.04 44.9219 22.18 44.0419 22.18ZM52.9603 13.22V18.58C52.9603 18.9533 53.047 19.2267 53.2203 19.4C53.407 19.56 53.7136 19.64 54.1403 19.64H55.4403V22H53.6803C51.3203 22 50.1403 20.8533 50.1403 18.56V13.22H48.8203V10.92H50.1403V8.18H52.9603V10.92H55.4403V13.22H52.9603ZM55.7342 16.42C55.7342 15.3 55.9542 14.3067 56.3942 13.44C56.8476 12.5733 57.4542 11.9067 58.2142 11.44C58.9876 10.9733 59.8476 10.74 60.7942 10.74C61.6209 10.74 62.3409 10.9067 62.9542 11.24C63.5809 11.5733 64.0809 11.9933 64.4542 12.5V10.92H67.2742V22H64.4542V20.38C64.0942 20.9 63.5942 21.3333 62.9542 21.68C62.3276 22.0133 61.6009 22.18 60.7742 22.18C59.8409 22.18 58.9876 21.94 58.2142 21.46C57.4542 20.98 56.8476 20.3067 56.3942 19.44C55.9542 18.56 55.7342 17.5533 55.7342 16.42ZM64.4542 16.46C64.4542 15.78 64.3209 15.2 64.0542 14.72C63.7876 14.2267 63.4276 13.8533 62.9742 13.6C62.5209 13.3333 62.0342 13.2 61.5142 13.2C60.9942 13.2 60.5142 13.3267 60.0742 13.58C59.6342 13.8333 59.2742 14.2067 58.9942 14.7C58.7276 15.18 58.5942 15.7533 58.5942 16.42C58.5942 17.0867 58.7276 17.6733 58.9942 18.18C59.2742 18.6733 59.6342 19.0533 60.0742 19.32C60.5276 19.5867 61.0076 19.72 61.5142 19.72C62.0342 19.72 62.5209 19.5933 62.9742 19.34C63.4276 19.0733 63.7876 18.7 64.0542 18.22C64.3209 17.7267 64.4542 17.14 64.4542 16.46ZM75.1489 10.76C76.4689 10.76 77.5356 11.18 78.3489 12.02C79.1622 12.8467 79.5689 14.0067 79.5689 15.5V22H76.7689V15.88C76.7689 15 76.5489 14.3267 76.1089 13.86C75.6689 13.38 75.0689 13.14 74.3089 13.14C73.5356 13.14 72.9222 13.38 72.4689 13.86C72.0289 14.3267 71.8089 15 71.8089 15.88V22H69.0089V10.92H71.8089V12.3C72.1822 11.82 72.6556 11.4467 73.2289 11.18C73.8156 10.9 74.4556 10.76 75.1489 10.76ZM84.4916 13.22V18.58C84.4916 18.9533 84.5782 19.2267 84.7516 19.4C84.9382 19.56 85.2449 19.64 85.6716 19.64H86.9716V22H85.2116C82.8516 22 81.6716 20.8533 81.6716 18.56V13.22H80.3516V10.92H81.6716V8.18H84.4916V10.92H86.9716V13.22H84.4916ZM90.7855 7.2V22H87.9855V7.2H90.7855ZM103.152 10.92L96.2919 27.24H93.3119L95.7119 21.72L91.2719 10.92H94.4119L97.2719 18.66L100.172 10.92H103.152Z" fill="white"/>
</svg>
